<svg width="580" height="578" viewBox="0 0 580 578" fill="none" xmlns="http://www.w3.org/2000/svg">
<rect y="286" width="145" height="145" rx="12" transform="rotate(-90 0 286)" fill="#6D00FC" fill-opacity="0.86"/>
<rect x="145" y="145" width="145" height="145" rx="12" transform="rotate(-90 145 145)" fill="#FF5893" fill-opacity="0.24"/>
<rect x="145" y="431" width="145" height="145" rx="12" transform="rotate(-90 145 431)" fill="white"/>
<rect x="435" y="431" width="145" height="145" rx="12" transform="rotate(-90 435 431)" fill="white"/>
<rect x="290" y="286" width="145" height="145" rx="12" transform="rotate(-90 290 286)" fill="#6D00FC" fill-opacity="0.86"/>
<rect x="290" y="578" width="145" height="145" rx="12" transform="rotate(-90 290 578)" fill="#44E9FF" fill-opacity="0.24"/>
<rect x="290" y="432" width="145" height="145" rx="72.5" transform="rotate(-90 290 432)" fill="#44E9FF" fill-opacity="0.9"/>
<rect x="145" y="289" width="145" height="145" rx="72.5" transform="rotate(-90 145 289)" fill="#FF67C2"/>
</svg>
