<svg width="257" height="101" viewBox="0 0 257 101" fill="none" xmlns="http://www.w3.org/2000/svg">
<path d="M106.082 82.7899C105.898 81.9599 105.148 80.9919 103.632 80.9919C103.32 80.9919 102.98 81.0319 102.598 81.1129C101.887 81.2579 101.285 81.3279 100.754 81.3549C104.887 74.3119 107.57 64.5349 104.914 61.1409C101.41 56.6679 96.7 55.9999 94.204 55.9999H93.969C93.039 56.0159 92.074 56.1289 91.105 56.3399L87.52 57.1129C87.0225 57.0471 86.5217 57.0094 86.02 56.9999H85.82C84.227 56.9999 82.773 57.3359 81.48 57.9729L80.227 57.4799C78.507 56.7999 75.922 55.9919 73.359 55.9919C73.215 55.9919 73.074 55.9959 72.929 56.0039C70.406 56.0939 68.242 57.0509 66.664 58.7699C64.695 60.9139 63.801 64.0549 64.004 68.1019C64.012 68.3089 66.46 88.9999 73.398 88.9999H73.488C74.391 88.9769 75.25 88.6129 76.051 87.9219C76.664 88.3819 77.457 88.6519 78.195 88.7619C78.684 88.8789 79.562 89.0389 80.613 89.0389C81.898 89.0389 83.059 88.7769 84.055 88.3009C84.055 89.1839 84.051 90.2969 84.039 91.7189V91.7969L84.043 91.8709C84.141 93.2889 84.387 94.5659 84.753 95.5709C85.805 98.4299 87.621 100.004 89.863 100.004C89.957 100.004 90.055 100.004 90.148 99.9959C91.996 99.8829 93.868 98.8439 95.152 97.2229C96.547 95.4689 96.867 93.6169 96.992 92.1989L97 92.1089V87.9449L97.102 87.9529L97.539 87.9929L97.582 87.9959H97.622C97.746 88.0039 97.875 88.0079 98.004 88.0079C99.512 88.0079 101.367 87.6129 102.621 87.0309C103.821 86.4769 106.559 84.9489 106.082 82.7889V82.7899Z" fill="white"/>
<path d="M95 86.9998C95 86.7968 95.012 86.6248 95.02 86.4338L95 85.9998L95.031 85.9768C95.18 83.3048 95.918 82.2728 96.707 81.6868C96.597 81.5348 96.469 81.3708 96.352 81.2148C96.02 80.7768 95.602 80.2348 95.16 79.5388L95.078 79.3828C95.012 79.2188 94.848 78.9328 94.641 78.5628C93.461 76.4218 90.996 71.9688 92.684 69.1558C93.422 67.9258 94.804 67.2148 96.804 67.0388C95.984 64.7188 92.926 59.1128 85.984 58.9998H85.98C79.937 58.9018 77.953 64.3898 77.309 67.6718C78.195 67.2968 79.215 67.0658 80.145 67.0658H80.188C82.477 67.0818 84.051 68.3048 84.508 70.4218C84.844 71.9718 85.004 73.3278 85 74.5738C84.992 77.2928 84.441 78.7228 83.96 79.9838L83.805 80.3908C83.68 80.7268 83.551 81.0348 83.425 81.3278C83.301 81.6278 83.187 81.8908 83.109 82.1328C83.594 82.2428 83.973 82.3948 84.234 82.5118L84.383 82.5778C84.43 82.5978 84.477 82.6208 84.52 82.6448C85.367 83.1598 85.898 83.9528 86.012 84.8788C86.07 85.3788 86.062 88.7728 86.039 91.7338C86.129 93.0198 86.344 94.0978 86.633 94.8788C87.043 95.9918 88.063 98.1208 90.027 97.9998C91.398 97.9138 92.715 97.0778 93.59 95.9798C94.527 94.7998 94.871 93.4918 95.004 92.0228V86.9998H95Z" fill="#0277BD"/>
<path d="M77.113 81.918C75.5 80.234 74.715 77.968 75.012 75.859C75.297 73.824 75.132 71.836 75.047 70.762C75.0237 70.5058 75.008 70.2491 75 69.992C75 69.984 75.004 69.977 75.004 69.969C75.004 69.965 75 69.965 75 69.961C75.121 66.938 76.285 62.171 79.492 59.34C77.934 58.723 75.387 57.914 73 58C69.258 58.137 65.637 60.723 66 68C66.137 70.73 69.223 87.102 73.441 87C74.043 86.984 74.668 86.598 75.312 85.824C76.1918 84.7693 77.0947 83.7341 78.02 82.719C77.6966 82.4768 77.3933 82.2089 77.113 81.918Z" fill="#0277BD"/>
<path d="M99.023 67.7299C99.039 67.8869 99.023 68.0159 99 68.1399C99.031 69.0589 98.934 69.9529 98.832 70.8159C98.7484 71.4646 98.691 72.1165 98.66 72.7699C98.64 73.4139 98.73 74.0499 98.828 74.7229C99.051 76.3009 99.285 78.0819 98.062 80.1599C98.285 80.4569 98.484 80.7299 98.645 80.9959C103.254 73.5229 105.109 64.6359 103.34 62.3709C100.656 58.9449 96.94 57.9529 94 57.9999C93.078 58.0159 92.242 58.1399 91.527 58.2929C96.602 60.7529 98.863 66.0269 99.023 67.7299Z" fill="#0277BD"/>
<path d="M103 83.0698C100.336 83.6208 99.055 83.3278 98.43 82.9448C98.332 83.0148 98.23 83.0778 98.137 83.1368C97.766 83.3588 97.176 83.7188 97.031 85.9178C97.117 85.9338 97.188 85.9408 97.277 85.9608L97.715 85.9998C99.035 86.0588 100.762 85.6908 101.777 85.2188C103.961 84.2028 105.152 82.6288 103 83.0698Z" fill="#0277BD"/>
<path d="M84.023 85.117C83.984 84.82 83.824 84.578 83.531 84.387L83.421 84.34C83.063 84.18 82.652 84 82 84H81.996C81.867 84.012 81.742 84.02 81.617 84.02C81.562 84.02 81.512 84.012 81.461 84.012C80.988 84.375 80.313 84.656 78.645 85C75.665 85.758 77.425 86.656 78.566 86.793C79.672 87.07 82.301 87.406 84.046 85.984C84.0475 85.6948 84.0399 85.4057 84.023 85.117Z" fill="#0277BD"/>
<path d="M82.68 71.4999C82.39 71.8049 81.93 72.0659 81.418 71.9839C80.59 71.8519 79.957 70.8519 80.004 70.4769C80.047 70.1019 80.754 69.9069 81.578 70.0429C81.868 70.0899 82.128 70.1719 82.348 70.2699C82.028 69.5819 81.449 69.1839 80.566 69.0899C79 68.9139 77.34 69.7299 77.008 70.1839C77.012 70.2969 77.028 70.4369 77.039 70.6019C77.133 71.7499 77.305 73.8869 76.989 76.1409C76.781 77.6249 77.383 79.3089 78.555 80.5349C79.313 81.3249 80.195 81.8249 81.07 81.9729C81.18 81.4929 81.379 81.0269 81.582 80.5469C81.695 80.2809 81.816 79.9999 81.93 79.6949L82.09 79.2699C82.531 78.1129 82.988 76.9179 83 74.5659C83.004 73.6599 82.89 72.6289 82.68 71.4999Z" fill="#0277BD"/>
<path d="M96.848 75.0079C96.742 74.2779 96.637 73.5229 96.66 72.7029C96.684 71.9609 96.766 71.2619 96.848 70.5859C96.906 70.0509 96.957 69.5389 96.984 69.0359C95.695 69.1409 94.84 69.5159 94.434 70.1449C94.6171 70.0803 94.807 70.0367 95 70.0149C95.895 69.8979 96.543 70.1559 96.617 70.6519C96.676 71.0159 96.367 71.3549 96.23 71.4879C95.953 71.7579 95.605 71.9299 95.25 71.9769C94.8475 72.0206 94.4427 71.9176 94.11 71.6869C94.223 73.6599 95.676 76.3009 96.39 77.5939C96.547 77.8709 96.664 78.0939 96.762 78.2809C97.152 77.1639 97.008 76.1449 96.848 75.0079Z" fill="#0277BD"/>
<path fill-rule="evenodd" clip-rule="evenodd" d="M187.051 64.8362C186.075 61.7957 184.508 59.1047 182.301 56.7891C181.743 56.2034 181.123 55.6667 180.734 54.9381C180.488 54.4769 180.253 54.0092 180.014 53.545L179.861 53.1621L179.819 53.3129C179.799 54.0704 179.37 54.5837 178.836 55.0634C178.235 55.6026 177.675 56.1884 177.098 56.7542L175.322 59.0901L173.886 61.7309L172.925 64.324L172.896 64.3641C172.368 66.1 172.107 67.885 171.98 69.6872C171.931 70.3649 171.987 71.0519 172.025 71.7329C172.079 72.7064 172.248 73.663 172.502 74.6054C173.423 78.0276 175.293 80.866 177.85 83.278C178.325 83.7261 178.838 84.1337 179.334 84.5597L179.553 85.3127L179.757 86.4812L179.855 87.7011C179.853 87.9486 179.843 88.1972 179.858 88.444C179.862 88.5074 179.945 88.5659 179.991 88.6266L180.405 88.7721L180.836 88.9397L180.762 87.8556L180.759 86.7876L180.908 85.1609L181.016 84.8069L181.325 84.259C181.707 83.9522 182.116 83.6732 182.463 83.3316C183.092 82.714 183.72 82.0877 184.283 81.4109C185.013 80.533 185.642 79.5749 186.146 78.5474C186.483 77.86 186.801 77.1587 187.064 76.4406C187.296 75.8076 187.44 75.142 187.622 74.4906L187.67 74.35C188.047 72.592 188.111 70.816 187.972 69.0287C187.861 67.5884 187.522 66.1982 187.051 64.8362ZM179.589 83.6894C179.646 83.4002 179.718 83.1126 179.77 82.8224C179.718 83.1126 179.647 83.4002 179.589 83.6894ZM180.87 83.8889L180.628 83.3582L180.87 83.8889L181.226 84.193L180.87 83.8889ZM195.928 90.6115C195.618 90.0179 195.164 89.5671 194.563 89.2712C194.06 89.0237 193.518 88.915 192.962 88.8992C192.545 88.8872 192.126 88.9086 191.709 88.9139C191.338 88.9184 190.967 88.9247 190.596 88.9214C190.16 88.9169 189.723 88.9037 189.287 88.8914C189.215 88.8891 189.164 88.9037 189.13 88.9772C189.077 89.0916 189.014 89.2019 188.949 89.3271L189.022 89.3504C189.239 89.3886 189.456 89.4212 189.671 89.4644C189.948 89.5195 190.073 89.6785 190.085 89.9117C190.104 90.244 190.112 90.577 190.11 90.91C190.105 92.2277 190.095 93.5455 190.086 94.8629C190.085 94.9499 190.083 95.0406 190.06 95.1224C190.032 95.2169 190.003 95.3391 189.932 95.3856C189.81 95.4666 189.659 95.5214 189.514 95.545C189.304 95.5795 189.269 95.5889 189.203 95.7959L189.174 95.8994C189.143 96.0122 189.16 96.0344 189.278 96.0355C189.953 96.043 190.629 96.0576 191.304 96.0554C191.92 96.0531 192.536 96.0906 193.15 95.9747C193.73 95.8656 194.272 95.6744 194.766 95.3507C195.407 94.9304 195.869 94.3686 196.112 93.6355C196.308 93.0434 196.352 92.4392 196.286 91.8201C196.24 91.393 196.125 90.9906 195.928 90.6115ZM194.744 94.2344C194.382 94.9071 193.843 95.3564 193.073 95.4749C192.59 95.5487 192.107 95.5274 191.646 95.3447C191.355 95.2292 191.247 94.9776 191.238 94.6802C191.229 94.3889 191.226 94.0971 191.225 93.8057C191.224 92.7805 191.224 91.7552 191.225 90.7304C191.226 90.4075 191.232 90.0839 191.237 89.7606C191.241 89.5334 191.288 89.4572 191.51 89.4389C192.483 89.3571 193.412 89.4621 194.184 90.1472C194.661 90.571 194.932 91.1114 195.045 91.732C195.092 91.9907 195.106 92.2555 195.135 92.518C195.112 93.1172 195.031 93.7004 194.744 94.2344ZM202.915 93.124C202.723 92.6567 202.359 92.3639 201.902 92.1764C201.746 92.1122 201.585 92.0594 201.417 91.9971L201.476 91.9596C201.657 91.843 201.86 91.7489 202.017 91.6052C202.398 91.2561 202.556 90.817 202.482 90.2954C202.411 89.7992 202.164 89.4351 201.722 89.1989C201.32 88.9851 200.888 88.9071 200.44 88.9075C199.665 88.9082 198.89 88.9199 198.115 88.9214C197.848 88.9217 197.581 88.9019 197.314 88.8981C197.262 88.8974 197.186 88.9105 197.163 88.945C197.102 89.0387 197.062 89.1467 197.018 89.251C196.993 89.3117 197.018 89.3451 197.087 89.3541C197.274 89.3796 197.46 89.4115 197.646 89.4392C197.904 89.4779 198.029 89.6121 198.045 89.872L198.048 90.0261C198.049 90.8342 198.051 91.6424 198.048 92.4505C198.044 93.2571 198.035 94.0645 198.025 94.8715C198.024 94.9731 198.01 95.0751 197.996 95.176C197.973 95.3282 197.892 95.4332 197.736 95.4662L197.295 95.5532C197.243 95.5637 197.167 95.5622 197.146 95.5945C197.065 95.7156 197 95.848 197.009 96.0077L197.054 96.0201L198.536 96.0565L198.834 96.0554C199.347 96.0494 199.86 96.0595 200.373 96.0332C200.927 96.0055 201.448 95.8409 201.93 95.5577C202.442 95.2559 202.837 94.858 202.977 94.2595C203.067 93.8774 203.067 93.493 202.915 93.124ZM199.149 89.6811C199.151 89.5187 199.223 89.4482 199.384 89.4441C199.781 89.4332 200.175 89.4355 200.559 89.5724C201.054 89.7494 201.359 90.1769 201.354 90.6992C201.351 90.8999 201.354 91.0986 201.28 91.2914C201.134 91.6709 200.855 91.8711 200.458 91.9101C200.251 91.9311 200.042 91.9334 199.857 91.9431L199.242 91.9161C199.16 91.9131 199.124 91.8771 199.125 91.7931L199.149 89.6811ZM201.701 94.7414C201.503 95.173 201.141 95.3999 200.688 95.4786C200.327 95.5416 199.962 95.5232 199.604 95.431C199.339 95.3631 199.231 95.1505 199.178 94.9146C199.143 94.7567 199.149 94.5689 199.146 94.4046C199.141 94.1511 199.145 93.625 199.145 93.625H199.139C199.139 93.25 199.14 92.9252 199.138 92.5656C199.138 92.488 199.151 92.4494 199.246 92.4524C199.583 92.4625 199.92 92.4681 200.257 92.4812C200.558 92.4929 200.84 92.5821 201.105 92.725C201.509 92.9425 201.752 93.2755 201.819 93.733C201.87 94.0799 201.848 94.4211 201.701 94.7414ZM164.731 95.1456L164.738 93.1067C164.739 92.8 164.7 92.4992 164.6 92.2082C164.322 91.4069 163.558 91.042 162.762 91.3296C162.401 91.4605 162.076 91.6589 161.766 91.8839C161.586 92.0151 161.586 92.0151 161.456 91.828C161.086 91.2985 160.559 91.1174 159.944 91.3127C159.547 91.4387 159.2 91.6544 158.871 91.9049C158.84 91.9281 158.778 91.954 158.76 91.9401C158.729 91.9172 158.708 91.8629 158.709 91.822L158.731 91.4597C158.733 91.3836 158.718 91.3071 158.711 91.2272C158.562 91.2786 158.444 91.33 158.32 91.36C157.936 91.4537 157.55 91.54 157.164 91.6281C157.071 91.6495 156.972 91.6776 156.963 91.7849C156.954 91.8902 157.055 91.9079 157.134 91.9394C157.3 92.0061 157.464 92.077 157.628 92.149C157.766 92.2097 157.817 92.3196 157.817 92.4674C157.814 93.0992 157.818 93.7304 157.814 94.3622C157.813 94.6191 157.801 94.8756 157.789 95.1325C157.779 95.3601 157.701 95.4554 157.481 95.5127C157.364 95.5435 157.245 95.5641 157.127 95.5919C157.101 95.5979 157.057 95.6144 157.056 95.6271C157.052 95.7385 157.046 95.8525 157.064 95.9609C157.068 95.9804 157.186 95.9804 157.251 95.9879L157.295 95.9852C157.749 95.9785 158.204 95.9714 158.659 95.9665C158.9 95.9639 159.141 95.9661 159.402 95.9661L159.431 95.6024C159.281 95.575 159.147 95.5544 159.015 95.5255C158.809 95.4805 158.721 95.3714 158.716 95.1636L158.712 94.8662C158.71 94.0949 158.707 93.3239 158.707 92.5525C158.707 92.4404 158.753 92.3515 158.852 92.2844C159.061 92.1434 159.281 92.0312 159.525 91.9686C160.04 91.837 160.486 92.02 160.684 92.4576C160.747 92.5956 160.796 92.7482 160.81 92.8982C160.883 93.6715 160.851 94.4455 160.807 95.2187C160.798 95.3856 160.719 95.4696 160.555 95.5105L160.168 95.5922C160.137 95.6001 160.091 95.5791 160.089 95.605C160.08 95.7119 160.085 95.8757 160.085 95.8757H160.178L161.356 95.9144C161.679 95.9136 162.002 95.9526 162.324 95.9609C162.382 95.962 162.434 95.9706 162.437 95.9039C162.442 95.7981 162.438 95.6987 162.433 95.593L162.371 95.5821L162.039 95.5075C161.816 95.4546 161.738 95.3695 161.738 95.143C161.735 94.5846 161.742 94.0266 161.738 93.4686C161.735 93.1495 161.723 92.8304 161.702 92.512C161.696 92.4272 161.709 92.3717 161.777 92.3241C161.976 92.1824 162.191 92.0732 162.426 92.011C163.152 91.8197 163.746 92.2176 163.784 92.9657C163.82 93.6872 163.805 94.4114 163.799 95.1344C163.797 95.386 163.714 95.4621 163.466 95.5296L163.381 95.5517C163.127 95.6125 163.129 95.6125 163.144 95.8821C163.149 95.9665 163.172 95.9882 163.262 95.986C163.779 95.9744 164.297 95.9714 164.814 95.9669C165.025 95.965 165.237 95.9669 165.467 95.9669L165.514 95.6159C165.312 95.5622 165.125 95.5225 164.945 95.4636C164.786 95.4096 164.73 95.3136 164.731 95.1456ZM182.539 92.0552C182.752 91.8576 182.754 91.5966 182.694 91.3067C182.525 91.4834 182.336 91.5647 182.121 91.5801C181.832 91.6007 181.548 91.5756 181.278 91.4605C180.55 91.1477 179.833 91.1699 179.118 91.513C178.517 91.801 178.148 92.2499 178.11 92.9305C178.087 93.3666 178.169 93.7795 178.46 94.1264C178.634 94.3341 178.858 94.4687 179.11 94.5617C179.219 94.6019 179.227 94.6536 179.136 94.723C179.069 94.7744 178.998 94.8209 178.927 94.8655C178.775 94.9611 178.622 95.0556 178.467 95.1482C178.377 95.203 178.346 95.2727 178.376 95.3796C178.463 95.6939 178.686 95.8754 178.965 96.0077L179.066 96.0786L178.977 96.1675C178.704 96.3891 178.42 96.5984 178.158 96.8335C177.938 97.0311 177.867 97.2959 177.934 97.588C178.068 98.1711 178.454 98.5319 179.003 98.6976C179.962 98.9879 180.862 98.8214 181.683 98.2532C182.17 97.9161 182.519 97.4774 182.625 96.8736C182.744 96.1952 182.367 95.6065 181.692 95.485C181.246 95.404 180.789 95.3807 180.338 95.329C180.127 95.305 179.913 95.2907 179.708 95.2424C179.534 95.2011 179.447 95.059 179.463 94.9202C179.48 94.7837 179.625 94.6566 179.791 94.6435C180.125 94.6165 180.453 94.5644 180.761 94.4234C181.578 94.0499 181.957 93.3959 181.862 92.5154C181.85 92.3969 181.823 92.2799 181.799 92.1419C182.06 92.1857 182.327 92.2521 182.539 92.0552ZM180.061 96.1866C180.393 96.1964 180.771 96.217 181.136 96.3239C181.458 96.4176 181.722 96.5819 181.8 96.9407C181.894 97.3742 181.686 97.8055 181.266 98.0372C180.873 98.254 180.446 98.272 180.014 98.2274C179.643 98.1891 179.31 98.0609 179.043 97.7871C178.691 97.4267 178.689 96.928 179.041 96.5687C179.356 96.2477 179.524 96.1814 180.061 96.1866ZM180.892 93.5759C180.699 94.195 180.135 94.2805 179.694 94.0825C179.318 93.9141 179.154 93.5826 179.068 93.2042C179.035 93.0587 179.027 92.9076 179.007 92.7587C179.015 92.5454 179.051 92.3406 179.142 92.1486C179.424 91.5572 180.116 91.5925 180.499 91.8602C180.663 91.975 180.777 92.131 180.849 92.3159C181.008 92.7299 181.024 93.1517 180.892 93.5759ZM177.378 95.5495C177.245 95.5281 177.111 95.5004 176.982 95.461C176.754 95.3912 176.726 95.3485 176.724 95.1074C176.717 94.4354 176.712 93.7634 176.705 93.0917C176.701 92.7895 176.665 92.4914 176.573 92.2026C176.329 91.4414 175.582 91.0326 174.835 91.2572C174.421 91.3821 174.066 91.6142 173.735 91.8869L173.614 91.9795L173.614 91.8554C173.622 91.7125 173.637 91.5696 173.636 91.4267C173.636 91.3521 173.607 91.2771 173.593 91.2115C173.311 91.2966 173.058 91.3821 172.799 91.4474C172.54 91.5126 172.276 91.5569 172.014 91.6101C171.884 91.6364 171.788 91.7151 171.79 91.8047C171.794 91.9311 171.898 91.9555 171.99 91.9934C172.155 92.0612 172.321 92.1299 172.485 92.2026C172.602 92.2547 172.649 92.3515 172.648 92.4771C172.64 93.3505 172.635 94.2242 172.622 95.098C172.618 95.374 172.548 95.4467 172.277 95.5075L172.158 95.5311C171.907 95.5742 171.9 95.5844 171.917 95.8495L171.919 95.8934C171.916 95.9954 171.96 96.0284 172.065 96.0272C172.733 96.0194 173.401 96.0156 174.068 96.0182C174.354 96.0194 174.385 95.9969 174.379 95.7029L174.366 95.5765C174.202 95.5491 174.046 95.5292 173.893 95.4955C173.733 95.4599 173.675 95.3942 173.66 95.2315C173.646 95.0826 173.642 94.9315 173.64 94.7815C173.633 94.0949 173.627 93.4082 173.624 92.722C173.623 92.5491 173.655 92.3886 173.814 92.2772C174.055 92.1089 174.319 92.0114 174.611 91.9915C175.206 91.9506 175.659 92.3035 175.691 92.8971C175.731 93.6295 175.719 94.3645 175.728 95.0984C175.729 95.1531 175.719 95.2082 175.712 95.2626C175.697 95.3699 175.645 95.4505 175.536 95.4782C175.43 95.506 175.322 95.5307 175.214 95.5472C175.052 95.5712 175.049 95.5701 175.037 95.7332L175.041 95.8431C175.06 96.0329 175.06 96.0272 175.252 96.0254C175.898 96.0201 176.543 96.0167 177.189 96.0175C177.459 96.0182 177.478 96.0055 177.48 95.7272L177.479 95.6612C177.483 95.59 177.452 95.5611 177.378 95.5495ZM186.398 91.3034C185.721 91.138 185.079 91.261 184.469 91.5764C183.877 91.8827 183.481 92.3564 183.33 93.0104C183.178 93.6715 183.251 94.3165 183.543 94.9304C183.733 95.329 184.025 95.6372 184.424 95.8375C185.356 96.307 186.496 96.094 187.227 95.4659C187.805 94.9705 188.016 94.3109 188.029 93.4945C188.021 93.4127 188.013 93.2552 187.992 93.0992C187.869 92.2105 187.254 91.5126 186.398 91.3034ZM186.911 94.7365C186.731 95.4437 186.119 95.758 185.429 95.515C185.077 95.3912 184.814 95.1546 184.637 94.8347C184.23 94.0997 184.151 93.3182 184.383 92.5165C184.538 91.9825 184.977 91.6904 185.5 91.7271C185.967 91.7597 186.326 91.984 186.59 92.3642C186.868 92.7655 186.975 93.2219 187.004 93.7011C187.008 93.778 187.004 93.8549 187.004 93.9321L187.037 93.9359C186.996 94.2032 186.977 94.4759 186.911 94.7365ZM169.374 91.2917C168.662 91.129 167.995 91.2899 167.377 91.6517C166.842 91.9645 166.497 92.4317 166.365 93.0422C166.241 93.6126 166.291 94.1732 166.493 94.7196C166.616 95.0526 166.803 95.3455 167.076 95.5739C167.652 96.0542 168.324 96.1757 169.04 96.0419C169.646 95.9282 170.179 95.659 170.566 95.1554C170.928 94.6844 171.066 94.1436 171.08 93.5575C171.059 93.3719 171.054 93.1829 171.014 93.0017C170.819 92.0976 170.29 91.5006 169.374 91.2917ZM169.955 94.7342C169.781 95.4377 169.16 95.7599 168.475 95.5169C168.035 95.3605 167.748 95.0384 167.567 94.6255C167.277 93.9621 167.218 93.2717 167.406 92.572C167.55 92.0369 167.984 91.6427 168.648 91.7372C169.055 91.795 169.373 92.0031 169.61 92.3342C169.931 92.7809 170.036 93.2924 170.051 93.8297V93.9396L170.078 93.9437C170.038 94.2077 170.019 94.4762 169.955 94.7342Z" fill="#4FAA41"/>
<path d="M256.344 36.6624C256.344 38.3249 254.987 39.6811 253.325 39.6811H204.675C203.012 39.6811 201.656 38.3249 201.656 36.6624V19.3374C201.656 17.6749 203.012 16.3186 204.675 16.3186H253.325C254.987 16.3186 256.344 17.6749 256.344 19.3374V36.6624Z" fill="#003A2B"/>
<path d="M211.063 19.95H213.688V31.9375C212.375 32.2 211.369 32.2875 210.319 32.2875C207.169 32.2875 205.506 30.8437 205.506 28.1312C205.506 25.5062 207.256 23.7562 209.969 23.7562C210.406 23.7562 210.713 23.8 211.106 23.8875V19.95H211.063ZM211.063 25.9875C210.756 25.9 210.494 25.8562 210.188 25.8562C208.875 25.8562 208.131 26.6437 208.131 28.0875C208.131 29.4874 208.875 30.2312 210.188 30.2312C210.494 30.2312 210.713 30.2312 211.063 30.1437V25.9875ZM217.8 23.975V29.9687C217.8 32.025 217.669 33.0312 217.188 33.9062C216.75 34.7375 216.225 35.2625 215.088 35.8312L212.681 34.6937C213.819 34.1687 214.388 33.6875 214.738 32.9437C215.088 32.2 215.219 31.325 215.219 29.0937V23.975H217.8ZM215.219 19.9937H217.8V22.6625H215.219V19.9937ZM219.375 24.5437C220.513 24.0187 221.606 23.7562 222.788 23.7562C224.1 23.7562 224.975 24.1062 225.369 24.8062C225.588 25.2 225.675 25.6812 225.675 26.775V32.025C224.494 32.1999 223.05 32.3312 221.956 32.3312C219.769 32.3312 218.806 31.5875 218.806 29.8812C218.806 28.0437 220.119 27.2125 223.269 26.95V26.3812C223.269 25.9 223.05 25.725 222.394 25.725C221.431 25.725 220.338 25.9875 219.331 26.5125V24.5437H219.375ZM223.4 28.6562C221.694 28.8312 221.125 29.0937 221.125 29.75C221.125 30.275 221.431 30.4937 222.131 30.4937C222.525 30.4937 222.875 30.45 223.356 30.3625V28.6562H223.4ZM226.944 24.3687C228.475 23.975 229.744 23.8 231.013 23.8C232.325 23.8 233.288 24.1062 233.856 24.675C234.381 25.2437 234.556 25.8562 234.556 27.125V32.2H231.975V27.2125C231.975 26.2062 231.625 25.8562 230.706 25.8562C230.356 25.8562 230.05 25.9 229.525 26.0312V32.2H226.944V24.3687ZM235.563 33.6C236.481 34.0812 237.4 34.3 238.319 34.3C240.025 34.3 240.725 33.5999 240.725 31.9812V31.9375C240.2 32.2 239.719 32.2875 239.063 32.2875C236.788 32.2875 235.344 30.8 235.344 28.4375C235.344 25.5062 237.488 23.8437 241.25 23.8437C242.344 23.8437 243.394 23.975 244.619 24.1937L243.744 26.075C243.044 25.9437 243.7 26.075 243.175 25.9875V26.25L243.219 27.3437V28.7437C243.219 29.0937 243.219 29.4437 243.263 29.7937V30.4937C243.263 32.7249 243.088 33.775 242.519 34.6062C241.731 35.875 240.331 36.4875 238.319 36.4875C237.313 36.4875 236.438 36.3562 235.519 35.9625V33.6H235.563ZM240.725 25.9H240.463C239.938 25.9 239.369 26.0312 238.975 26.25C238.363 26.6 238.013 27.2562 238.013 28.1312C238.013 29.4437 238.669 30.1875 239.806 30.1875C240.156 30.1875 240.463 30.1 240.769 30.0125V25.9H240.725ZM248.688 23.7562C251.269 23.7562 252.844 25.375 252.844 28.0437C252.844 30.7562 251.181 32.4625 248.556 32.4625C245.975 32.4625 244.356 30.8437 244.356 28.2187C244.4 25.4625 246.063 23.7562 248.688 23.7562ZM248.644 30.3187C249.65 30.3187 250.219 29.4875 250.219 28.0437C250.219 26.6437 249.65 25.7687 248.644 25.7687C247.638 25.7687 247.025 26.6 247.025 28.0437C247.069 29.5312 247.638 30.3187 248.644 30.3187Z" fill="white"/>
<path d="M75.4407 17.9663C75.2415 17.9663 75.0477 18.0159 74.8762 18.133L69.4489 21.912C69.0977 22.1561 68.8842 22.6168 68.8842 23.1071V30.6515C68.8842 31.1414 69.0977 31.6015 69.4489 31.8462L70.8663 32.8327C71.5549 33.2419 71.8088 33.2356 72.1222 33.2356C73.1417 33.2356 73.7239 32.4896 73.7239 31.1933V23.7461C73.7239 23.6408 73.6483 23.5655 73.5626 23.5655H72.8828C72.7957 23.5655 72.7215 23.6408 72.7215 23.7461V31.1933C72.7215 31.7678 72.225 32.3457 71.4195 31.8601L69.9444 30.8181C69.8922 30.7839 69.8522 30.7235 69.8522 30.6515V23.1069C69.8522 23.0355 69.8917 22.9627 69.9444 22.9264L75.3602 19.1614C75.3847 19.1442 75.4125 19.1351 75.4408 19.1351C75.4692 19.1351 75.497 19.1442 75.5215 19.1614L80.9374 22.9265C80.989 22.964 81.0296 23.0333 81.0296 23.1073V30.6516C81.0296 30.7237 80.9995 30.7974 80.9489 30.8322L75.5215 34.5973C75.475 34.6307 75.411 34.6307 75.3602 34.5973L73.9659 33.597C73.9447 33.5832 73.9209 33.5759 73.8968 33.5759C73.8726 33.5759 73.8489 33.5832 73.8277 33.597C73.4428 33.8601 73.3704 33.8906 73.0095 34.0416C72.9206 34.079 72.7856 34.1372 73.0556 34.3196L74.8762 35.6115C75.0479 35.7309 75.2427 35.7933 75.4409 35.7922C75.6391 35.7937 75.834 35.7314 76.0054 35.6117L81.4329 31.8464C81.7841 31.6002 81.9974 31.1415 81.9974 30.6516V23.1071C81.9974 22.617 81.7841 22.157 81.4329 21.9124L76.0054 18.1333C75.8354 18.0161 75.6403 17.9665 75.4409 17.9665L75.4407 17.9663Z" fill="#83CD29"/>
<path d="M76.8926 23.3572C75.3472 23.3572 74.4268 24.1503 74.4268 25.4692C74.4268 26.8997 75.3403 27.2928 76.8236 27.4697C78.598 27.6792 78.7362 27.9934 78.7362 28.4146C78.7362 29.1451 78.2532 29.4566 77.1117 29.4566C75.6772 29.4566 75.3621 29.0248 75.2565 28.1645C75.244 28.0722 75.185 27.9977 75.1066 27.9977H74.4038C74.3173 27.9977 74.2425 28.0876 74.2425 28.1923C74.2425 29.2936 74.7393 30.5959 77.1117 30.5959C78.8289 30.5959 79.8194 29.7831 79.8194 28.359C79.8194 26.9474 79.0193 26.5683 77.3535 26.3028C75.6704 26.0342 75.5099 25.9027 75.5099 25.4274C75.5099 25.0351 75.646 24.5102 76.8926 24.5102C78.0063 24.5102 78.4178 24.7999 78.5865 25.7053C78.6012 25.7903 78.6633 25.8581 78.7362 25.8581H79.4392C79.4825 25.8581 79.5244 25.826 79.5544 25.7886C79.5839 25.7486 79.6047 25.7036 79.6005 25.6497C79.4916 24.0906 78.6294 23.3572 76.8926 23.3572Z" fill="#83CD29"/>
<path d="M43.5333 8.07406C43.4727 8.07411 43.4131 8.09321 43.3604 8.12949C43.308 8.16642 43.2646 8.21916 43.2342 8.28252C43.2039 8.34587 43.1879 8.41765 43.1876 8.49078V19.1196C43.1876 19.2239 43.1474 19.3173 43.0724 19.3696C43.0357 19.3954 42.9939 19.409 42.9514 19.409C42.9089 19.409 42.8672 19.3954 42.8304 19.3696L41.39 18.3694C41.2849 18.2961 41.1657 18.2575 41.0443 18.2575C40.9229 18.2575 40.8037 18.2961 40.6986 18.3694L34.9486 22.3707C34.7337 22.5203 34.603 22.8079 34.603 23.1072V31.11C34.603 31.4089 34.7338 31.6827 34.9486 31.8324L40.6986 35.8338C40.8036 35.9073 40.9229 35.946 41.0443 35.946C41.1657 35.946 41.285 35.9073 41.39 35.8338L47.14 31.8324C47.2453 31.7593 47.3327 31.654 47.3934 31.5272C47.4541 31.4003 47.486 31.2564 47.4858 31.11V11.1585C47.4856 11.0086 47.4525 10.8615 47.3897 10.7321C47.327 10.6027 47.2369 10.4957 47.1286 10.422L43.7061 8.11558C43.6525 8.07947 43.5929 8.0731 43.5333 8.07406ZM6.54406 18.0637C6.43451 18.0689 6.33138 18.0921 6.23304 18.1608L0.482854 22.1623C0.377522 22.2353 0.290071 22.3405 0.229372 22.4674C0.168674 22.5943 0.136888 22.7382 0.13724 22.8847L0.148772 33.6249C0.148772 33.7742 0.212673 33.913 0.321578 33.986C0.37379 34.0239 0.433554 34.0438 0.494465 34.0438C0.555377 34.0438 0.61514 34.0239 0.667352 33.986L4.07816 31.6242C4.29421 31.4693 4.43531 31.2001 4.43531 30.9016V25.8859C4.43531 25.5866 4.56583 25.312 4.78108 25.1633L6.23288 24.1492C6.33785 24.0756 6.45723 24.0372 6.57865 24.0379C6.69717 24.0379 6.81889 24.0736 6.92427 24.1492L8.37623 25.1633C8.48166 25.2362 8.56919 25.3415 8.62993 25.4684C8.69066 25.5953 8.72243 25.7394 8.722 25.8859V30.9014C8.722 31.1999 8.86454 31.4711 9.07915 31.624L12.49 33.986C12.5422 34.0239 12.6019 34.0438 12.6628 34.0438C12.7238 34.0438 12.7835 34.0239 12.8357 33.986C12.8883 33.9494 12.9319 33.8967 12.9623 33.8333C12.9926 33.7699 13.0086 33.698 13.0087 33.6247L13.0199 22.8847C13.0206 22.7382 12.9889 22.594 12.9282 22.4671C12.8675 22.3402 12.7798 22.235 12.6743 22.1623L6.92427 18.1608C6.82705 18.0921 6.72359 18.0691 6.61325 18.0637H6.54406ZM58.2137 18.1608C58.0936 18.1608 57.9759 18.1975 57.8681 18.272L52.1181 22.2735C52.0128 22.3466 51.9254 22.4518 51.8647 22.5787C51.8039 22.7055 51.7721 22.8495 51.7723 22.9959V30.9987C51.7723 31.2998 51.9129 31.5724 52.1295 31.7213L57.8335 35.6394C58.0441 35.7842 58.3013 35.7952 58.5134 35.6529L61.9703 33.3328C62.08 33.2594 62.1542 33.1223 62.1547 32.9717C62.1553 32.8983 62.1395 32.8261 62.1091 32.7626C62.0788 32.699 62.0348 32.6465 61.9819 32.6104L56.1972 28.6089C56.089 28.5343 56.0129 28.3835 56.0129 28.2337V25.733C56.0129 25.5833 56.0898 25.4462 56.1972 25.3717L57.9948 24.1212C58.0474 24.0845 58.107 24.0652 58.1677 24.0652C58.2284 24.0652 58.288 24.0845 58.3406 24.1212L60.138 25.3717C60.1907 25.4082 60.2344 25.4608 60.2648 25.5242C60.2951 25.5876 60.3111 25.6596 60.311 25.7328V27.7057C60.3108 27.7789 60.3267 27.8509 60.3571 27.9143C60.3874 27.9778 60.4311 28.0304 60.4838 28.0668C60.5916 28.142 60.7219 28.1421 60.8294 28.0668L64.2749 25.6498C64.3801 25.5764 64.4673 25.4711 64.528 25.3442C64.5887 25.2174 64.6207 25.0736 64.6207 24.9272V22.9961C64.6207 22.6978 64.4894 22.4234 64.2749 22.2735L58.5595 18.272C58.4544 18.1988 58.3351 18.1605 58.2137 18.161V18.1608ZM41.0212 24.1352C41.0513 24.1352 41.0865 24.1441 41.1134 24.1629L43.084 25.5383C43.1374 25.5756 43.1762 25.6445 43.1762 25.7189V28.4698C43.1762 28.5446 43.1378 28.6133 43.084 28.6506L41.1134 30.0261C41.0871 30.0442 41.0573 30.0537 41.027 30.0537C40.9967 30.0537 40.9669 30.0442 40.9406 30.0261L38.9702 28.6506C38.9166 28.6131 38.878 28.5446 38.878 28.4698V25.7189C38.878 25.6444 38.9167 25.576 38.9702 25.5383L40.9406 24.1631C40.9648 24.1449 40.9928 24.1353 41.0213 24.1354V24.1352H41.0212Z" fill="#404137"/>
<path d="M23.8172 18.1191C23.6974 18.1191 23.5789 18.1558 23.4716 18.2304L17.7216 22.218C17.5065 22.3672 17.3758 22.6553 17.3758 22.9543V30.957C17.3758 31.2564 17.5066 31.5298 17.7216 31.6796L23.4716 35.6809C23.5766 35.7545 23.6959 35.7932 23.8173 35.7932C23.9387 35.7932 24.058 35.7545 24.163 35.6809L29.913 31.6796C30.0183 31.6065 30.1057 31.5012 30.1664 31.3743C30.227 31.2475 30.2589 31.1035 30.2586 30.957V22.9543C30.2586 22.655 30.1279 22.3672 29.913 22.218L24.163 18.2304C24.0579 18.1572 23.9386 18.1188 23.8172 18.1191ZM58.2022 25.2607C58.1793 25.2607 58.1538 25.2607 58.1332 25.2746L57.027 26.0526C57.0064 26.0664 56.9891 26.0865 56.977 26.111C56.9648 26.1354 56.9582 26.1632 56.9578 26.1916V27.7199C56.9578 27.7774 56.9854 27.8301 57.027 27.8589L58.1332 28.623C58.1747 28.652 58.2189 28.652 58.2599 28.623L59.366 27.8587C59.3866 27.8448 59.4038 27.8247 59.4159 27.8003C59.4281 27.776 59.4347 27.7483 59.4352 27.7199V26.1914C59.4347 26.163 59.4281 26.1353 59.4159 26.111C59.4038 26.0866 59.3866 26.0665 59.366 26.0526L58.2599 25.2744C58.2394 25.2599 58.2253 25.2609 58.2022 25.2609V25.2607Z" fill="#83CD29"/>
<path d="M135.81 11.6213C134.49 11.6276 133.231 11.7398 132.122 11.936C128.857 12.5129 128.264 13.7204 128.264 15.9476V18.8885H135.981V19.8688H125.368C123.125 19.8688 121.162 21.2167 120.547 23.7817C119.838 26.7207 119.807 28.5551 120.547 31.6242C121.096 33.9088 122.406 35.5363 124.648 35.5363H127.302V32.0107C127.302 29.4635 129.505 27.217 132.123 27.217H139.83C141.976 27.217 143.688 25.4501 143.688 23.2957V15.9479C143.688 13.8563 141.924 12.2854 139.83 11.9363C138.504 11.7157 137.129 11.6154 135.81 11.6213ZM131.637 13.9867C132.433 13.9867 133.085 14.6482 133.085 15.462C133.085 16.2723 132.434 16.9276 131.637 16.9276C130.837 16.9276 130.189 16.2723 130.189 15.462C130.188 14.6482 130.837 13.9867 131.637 13.9867Z" fill="url(#paint0_linear)"/>
<path d="M144.651 19.8687V23.2956C144.651 25.9518 142.398 28.1878 139.83 28.1878H132.122C130.011 28.1878 128.264 29.995 128.264 32.1093V39.4578C128.264 41.5487 130.082 42.779 132.122 43.3787C134.565 44.0965 136.907 44.2265 139.83 43.3787C141.773 42.8159 143.688 41.684 143.688 39.4578V36.5165H135.981V35.5359H147.547C149.789 35.5359 150.626 33.9718 151.406 31.6237C152.211 29.2065 152.177 26.8818 151.406 23.7812C150.851 21.5484 149.793 19.8684 147.547 19.8684H144.651V19.8687ZM140.315 38.4772C141.116 38.4772 141.763 39.1325 141.763 39.9434C141.763 40.7565 141.115 41.4181 140.315 41.4181C139.518 41.4181 138.868 40.7565 138.868 39.9434C138.868 39.1325 139.518 38.4772 140.315 38.4772Z" fill="url(#paint1_linear)"/>
<path opacity="0.444" d="M146.409 48.374C146.409 49.4812 141.779 50.379 136.068 50.379C130.357 50.379 125.727 49.4812 125.727 48.374C125.727 47.2665 130.357 46.3687 136.068 46.3687C141.779 46.3687 146.409 47.2662 146.409 48.374Z" fill="url(#paint2_radial)"/>
<defs>
<linearGradient id="paint0_linear" x1="119.23" y1="12.5409" x2="137.028" y2="27.719" gradientUnits="userSpaceOnUse">
<stop stop-color="#5A9FD4"/>
<stop offset="1" stop-color="#306998"/>
</linearGradient>
<linearGradient id="paint1_linear" x1="143.725" y1="37.1538" x2="137.342" y2="28.2032" gradientUnits="userSpaceOnUse">
<stop stop-color="#FFD43B"/>
<stop offset="1" stop-color="#FFE873"/>
</linearGradient>
<radialGradient id="paint2_radial" cx="0" cy="0" r="1" gradientUnits="userSpaceOnUse" gradientTransform="translate(136.026 48.3166) rotate(-90) scale(2.00572 8.81683)">
<stop stop-color="#B8B8B8" stop-opacity="0.498"/>
<stop offset="1" stop-color="#7F7F7F" stop-opacity="0"/>
</radialGradient>
</defs>
</svg>
