<svg width="226" height="46" viewBox="0 0 226 46" fill="none" xmlns="http://www.w3.org/2000/svg">
<path d="M124 6H164V46H124V6Z" fill="#F7DF1E"/>
<path d="M134.517 39.4269L137.578 37.5744C138.169 38.6214 138.706 39.5074 139.995 39.5074C141.23 39.5074 142.009 39.0242 142.009 37.1449V24.3639H145.768V37.198C145.768 41.0913 143.486 42.8635 140.156 42.8635C137.149 42.8635 135.403 41.3061 134.517 39.4266L134.517 39.4269ZM147.81 39.0241L150.87 37.2521C151.676 38.5678 152.723 39.5344 154.576 39.5344C156.133 39.5344 157.126 38.7556 157.126 37.6816C157.126 36.3928 156.106 35.9363 154.388 35.1847L153.448 34.7816C150.736 33.6274 148.937 32.1774 148.937 29.1164C148.937 26.2971 151.085 24.1489 154.442 24.1489C156.831 24.1489 158.55 24.9814 159.785 27.1563L156.858 29.036C156.213 27.8814 155.515 27.425 154.441 27.425C153.34 27.425 152.642 28.1231 152.642 29.036C152.642 30.1636 153.34 30.6203 154.951 31.3185L155.891 31.7211C159.086 33.0906 160.885 34.4867 160.885 37.628C160.885 41.0114 158.227 42.8639 154.656 42.8639C151.166 42.8639 148.91 41.1992 147.809 39.0242" fill="black"/>
<path d="M5.54688 41.9375L2.34375 6H37.5781L34.375 41.9375L19.9219 46" fill="#E34F26"/>
<path d="M20 42.875L31.6406 39.6719L34.375 8.89062H20" fill="#EF652A"/>
<path d="M20 22.25H14.1406L13.75 17.7188H20V13.3438H8.90625L10.0781 26.7031H20V22.25ZM19.9219 33.7344L15 32.4062L14.6875 28.8906H10.3125L10.8594 35.8438L19.9219 38.3438V33.7344Z" fill="#EBEBEB"/>
<path d="M19.9219 22.25V26.7031H25.3906L24.8438 32.4062L19.9219 33.7344V38.3438L28.9844 35.8438L30.2344 22.25H19.9219ZM19.9219 13.3438V17.7188H30.625L31.0156 13.3438H19.9219Z" fill="white"/>
<path d="M81.9756 45.8839L65.6985 42.1985L62.0712 9.01733H101.929L98.2977 42.1934L81.9756 45.8839Z" fill="#264DE4"/>
<path d="M95.1891 40.0807L98.292 11.7302H82V43.0629L95.1891 40.0807Z" fill="#2965F1"/>
<path d="M70.3868 24.0366L70.8339 28.1061H82V24.0366H70.3868ZM69.4881 15.7998L69.9417 19.8693H82V15.7998H69.4881ZM82 34.6056L81.9782 34.6104L76.4211 33.3866L76.0658 30.141H71.0569L71.7559 36.5308L81.9771 38.8448L82 38.8397V34.6056Z" fill="#EBEBEB"/>
<path d="M71.4515 0H77.4947V2.06121H73.9788V4.12241H77.4951V6.18349H71.4515V0ZM78.7036 0H84.747V1.79234H81.2308V2.15079H84.747V6.2732H78.7037V4.39102H82.2198V4.03258H78.7034V0H78.7036ZM85.9558 0H91.9992V1.79234H88.4831V2.15079H91.9992V6.2732H85.9558V4.39102H89.4719V4.03258H85.9559V0H85.9558Z" fill="black"/>
<path d="M93.5814 24.0366L94.4821 15.7998H81.9828V19.8693H89.0138L88.5598 24.0366H81.9828V28.1061H88.1271L87.5478 33.384L81.9827 34.6091V38.8429L92.212 36.5308L92.287 35.8432L93.4597 25.1294L93.5814 24.0366Z" fill="white"/>
<rect x="186" y="6" width="40" height="40" fill="#343434"/>
<path d="M205.5 24.4333C206.761 24.4333 207.784 23.4107 207.784 22.1494C207.784 20.888 206.761 19.8655 205.5 19.8655C204.239 19.8655 203.216 20.888 203.216 22.1494C203.216 23.4107 204.239 24.4333 205.5 24.4333Z" fill="#61DAFB"/>
<path d="M205.5 30.5481C207.293 32.2917 209.061 33.3232 210.485 33.3232C210.952 33.3232 211.394 33.225 211.762 33.0039C213.039 32.2672 213.506 30.4253 213.064 27.7976C212.99 27.331 212.892 26.8644 212.769 26.3733C213.26 26.2259 213.702 26.0786 214.144 25.9312C216.625 24.9735 218 23.6473 218 22.1984C218 20.725 216.625 19.3988 214.144 18.4656C213.702 18.2937 213.26 18.1464 212.769 18.0236C212.892 17.5324 212.99 17.0658 213.064 16.5992C213.481 13.9224 213.015 12.056 211.738 11.3193C211.369 11.0982 210.927 11 210.461 11C209.061 11 207.268 12.0314 205.475 13.775C203.707 12.0314 201.939 11 200.515 11C200.048 11 199.606 11.0982 199.238 11.3193C197.961 12.056 197.494 13.8978 197.936 16.5255C198.01 16.9921 198.108 17.4587 198.231 17.9499C197.74 18.0972 197.298 18.2446 196.856 18.3919C194.375 19.3497 193 20.6758 193 22.1248C193 23.5982 194.375 24.9244 196.856 25.8576C197.298 26.0295 197.74 26.1768 198.231 26.2996C198.108 26.7908 198.01 27.2574 197.936 27.724C197.519 30.3517 197.985 32.2181 199.238 32.9303C199.606 33.1513 200.048 33.2495 200.515 33.2495C201.939 33.2986 203.707 32.2672 205.5 30.5481ZM204.125 27.2328C204.567 27.2574 205.033 27.2574 205.5 27.2574C205.967 27.2574 206.433 27.2574 206.875 27.2328C206.433 27.8222 205.967 28.3625 205.5 28.8782C205.033 28.3625 204.567 27.8222 204.125 27.2328ZM201.08 24.7033C201.325 25.1208 201.546 25.5138 201.816 25.9067C201.055 25.8084 200.343 25.6857 199.655 25.5383C199.876 24.8752 200.122 24.1876 200.417 23.5C200.613 23.8929 200.834 24.3104 201.08 24.7033ZM199.655 18.7849C200.343 18.6375 201.055 18.5147 201.816 18.4165C201.571 18.8094 201.325 19.2024 201.08 19.6198C200.834 20.0373 200.613 20.4303 200.417 20.8477C200.097 20.1356 199.852 19.4479 199.655 18.7849ZM201.006 22.1493C201.325 21.4862 201.669 20.8232 202.062 20.1601C202.43 19.5216 202.848 18.8831 203.265 18.2446C204.002 18.1955 204.739 18.1709 205.5 18.1709C206.286 18.1709 207.023 18.1955 207.735 18.2446C208.177 18.8831 208.57 19.5216 208.938 20.1601C209.331 20.8232 209.675 21.4862 209.994 22.1493C209.675 22.8124 209.331 23.4754 208.938 24.1385C208.57 24.777 208.152 25.4155 207.735 26.054C206.998 26.1031 206.261 26.1277 205.5 26.1277C204.714 26.1277 203.977 26.1031 203.265 26.054C202.823 25.4155 202.43 24.777 202.062 24.1385C201.669 23.4754 201.325 22.8124 201.006 22.1493ZM210.608 20.8232L209.945 19.5953C209.699 19.1778 209.478 18.7849 209.208 18.3919C209.97 18.4902 210.682 18.613 211.369 18.7603C211.148 19.4479 210.903 20.1356 210.608 20.8232ZM210.608 23.4754C210.903 24.1631 211.148 24.8507 211.369 25.5138C210.682 25.6611 209.97 25.7839 209.208 25.8821C209.454 25.4892 209.699 25.0963 209.945 24.6788C210.166 24.3104 210.387 23.8929 210.608 23.4754ZM211.173 31.9971C210.976 32.1198 210.731 32.169 210.461 32.169C209.257 32.169 207.759 31.1866 206.286 29.7132C206.998 28.9519 207.686 28.0923 208.373 27.1346C209.528 27.0363 210.633 26.8644 211.664 26.6189C211.787 27.0609 211.861 27.5029 211.934 27.945C212.278 30.0324 212.008 31.5305 211.173 31.9971ZM212.45 19.055C215.2 19.8409 216.846 21.0442 216.846 22.1493C216.846 23.1071 215.716 24.0648 213.727 24.8261C213.334 24.9735 212.892 25.1208 212.45 25.2436C212.131 24.2367 211.738 23.2053 211.247 22.1493C211.738 21.0933 212.155 20.0619 212.45 19.055ZM210.485 12.1297C210.755 12.1297 210.976 12.1788 211.197 12.3016C212.008 12.7682 212.303 14.2417 211.959 16.3536C211.885 16.7711 211.787 17.2132 211.689 17.6798C210.657 17.4587 209.552 17.2868 208.398 17.164C207.735 16.2063 207.023 15.3468 206.31 14.5855C207.784 13.1365 209.282 12.1297 210.485 12.1297ZM206.875 17.0658C206.433 17.0413 205.967 17.0413 205.5 17.0413C205.033 17.0413 204.567 17.0413 204.125 17.0658C204.567 16.4764 205.033 15.9361 205.5 15.4204C205.967 15.9361 206.433 16.501 206.875 17.0658ZM199.827 12.3016C200.024 12.1788 200.269 12.1297 200.539 12.1297C201.743 12.1297 203.241 13.112 204.714 14.5855C204.002 15.3468 203.314 16.2063 202.627 17.164C201.472 17.2623 200.367 17.4342 199.336 17.6798C199.213 17.2377 199.139 16.7957 199.066 16.3536C198.722 14.2662 198.992 12.7927 199.827 12.3016ZM198.55 25.2436C195.8 24.4578 194.154 23.2544 194.154 22.1493C194.154 21.1916 195.284 20.2338 197.273 19.4725C197.666 19.3251 198.108 19.1778 198.55 19.055C198.869 20.0619 199.262 21.0933 199.753 22.1493C199.262 23.2053 198.845 24.2613 198.55 25.2436ZM199.066 27.945C199.139 27.5275 199.238 27.0855 199.336 26.6189C200.367 26.8399 201.472 27.0118 202.627 27.1346C203.29 28.0923 204.002 28.9519 204.714 29.7132C203.241 31.1621 201.743 32.169 200.539 32.169C200.269 32.169 200.048 32.1198 199.827 31.9971C198.992 31.5305 198.722 30.0324 199.066 27.945ZM198.034 38.0629C198.575 37.3998 198.599 36.6631 198.305 35.9263C198.01 35.1896 197.396 34.8458 196.635 34.8212C195.726 34.7967 194.793 34.8212 193.884 34.8212H193.712V41.1817H194.449V38.775H195.603C195.75 38.775 195.873 38.8242 195.947 38.947L197.42 41.2308C197.445 41.28 197.519 41.3536 197.568 41.3536H198.526C197.936 40.445 197.371 39.5855 196.782 38.7014C197.298 38.6277 197.74 38.4558 198.034 38.0629ZM194.449 38.0138V35.5825H194.719C195.284 35.5825 195.873 35.558 196.438 35.6071C197.101 35.6316 197.568 36.1473 197.568 36.8104C197.568 37.4735 197.028 37.9892 196.364 38.0138C195.775 38.0383 195.186 38.0138 194.449 38.0138ZM203.953 38.333C203.56 36.614 201.988 36.1719 200.785 36.7122C199.852 37.1297 199.434 37.9401 199.41 38.947C199.385 39.7083 199.606 40.3959 200.195 40.9116C200.859 41.501 201.669 41.5747 202.504 41.4273C202.971 41.3291 203.388 41.1081 203.707 40.7642C203.584 40.5923 203.462 40.4204 203.339 40.2731C202.651 40.8625 201.89 41.0589 201.055 40.666C200.515 40.3959 200.245 39.7328 200.195 39.2417H204.002V38.9224C204.027 38.7014 204.002 38.5049 203.953 38.333ZM200.245 38.7259C200.171 37.9892 200.908 37.2033 201.718 37.2033C202.651 37.1788 203.241 37.7436 203.265 38.7259H200.245ZM207.784 36.5894C207.416 36.5157 207.023 36.4912 206.654 36.5157C206.065 36.5648 205.549 36.835 205.132 37.277C205.254 37.4489 205.353 37.6208 205.5 37.8173C205.549 37.7682 205.598 37.7191 205.647 37.6945C206.04 37.3261 206.507 37.1297 207.072 37.1788C207.514 37.2033 207.931 37.3507 208.054 37.7927C208.152 38.1365 208.128 38.5049 208.152 38.8733C208.079 38.8733 208.054 38.8487 208.029 38.8242C207.44 38.333 206.777 38.2348 206.065 38.4067C205.402 38.5786 204.984 39.0943 204.935 39.7574C204.886 40.5187 205.23 41.0835 205.893 41.3536C206.31 41.5255 206.777 41.5255 207.219 41.4273C207.563 41.3536 207.71 41.1572 208.201 40.887V41.2063H208.889C208.889 40.224 208.914 39.0206 208.889 37.891C208.889 37.1788 208.472 36.7367 207.784 36.5894ZM208.128 39.6837C208.103 39.7574 208.128 39.831 208.128 39.9047C208.128 40.4204 208.005 40.5923 207.514 40.7888C207.17 40.9116 206.802 40.9607 206.433 40.8379C206.016 40.7151 205.721 40.3468 205.721 39.9293C205.696 39.5118 205.967 39.0943 206.384 38.9715C206.949 38.775 207.465 38.8978 207.931 39.2417C208.079 39.3644 208.177 39.4872 208.128 39.6837ZM211.959 37.2525C212.597 37.056 213.187 37.1788 213.629 37.7191L213.702 37.7682C213.874 37.6208 214.022 37.4735 214.218 37.3016C214.144 37.2279 214.12 37.1788 214.071 37.1051C213.359 36.3438 211.959 36.2456 211.099 36.8595C209.896 37.7436 209.92 39.4627 210.51 40.3713C211.075 41.2308 211.885 41.5255 212.843 41.4028C213.408 41.3291 213.874 41.0589 214.243 40.5923C214.071 40.445 213.899 40.2976 213.727 40.1257C213.678 40.1749 213.653 40.1994 213.629 40.2485C212.966 40.9853 211.861 40.9116 211.271 40.1257C210.927 39.6591 210.854 39.1189 210.952 38.5786C211.001 37.9646 211.32 37.4735 211.959 37.2525ZM217.067 40.5923C217.018 40.6169 216.993 40.6415 216.993 40.6415C216.797 40.7888 216.6 40.8134 216.379 40.7397C216.158 40.6415 216.134 40.445 216.109 40.2485V37.4489C216.109 37.3998 216.109 37.498 216.134 37.2525H217.067V36.5157H216.084V35.2878H215.348V36.614H214.709C214.66 36.614 214.586 36.6631 214.586 36.7122C214.562 36.8841 214.586 37.0069 214.586 37.2525H215.372V40.3959C215.372 40.7888 215.471 41.1326 215.814 41.3291C216.183 41.5501 216.895 41.501 217.214 41.2308C217.263 41.2063 217.288 41.1081 217.288 41.0835C217.214 40.9361 217.14 40.7642 217.067 40.5923Z" fill="#61DAFB"/>
</svg>
