<svg width="147" height="64" viewBox="0 0 147 64" fill="none" xmlns="http://www.w3.org/2000/svg">
<path d="M124 23L140 39L124 55" stroke="#8124FD" stroke-width="9"/>
<path d="M23 23L7 39L23 55" stroke="#8124FD" stroke-width="9"/>
<path d="M32.0734 39.56C32.0734 36.808 32.5854 34.392 33.6094 32.312C34.6654 30.232 36.0894 28.632 37.8814 27.512C39.6734 26.392 41.6734 25.832 43.8814 25.832C45.6414 25.832 47.2414 26.2 48.6814 26.936C50.1534 27.672 51.3054 28.664 52.1374 29.912V17.48H60.3454V53H52.1374V49.16C51.3694 50.44 50.2654 51.464 48.8254 52.232C47.4174 53 45.7694 53.384 43.8814 53.384C41.6734 53.384 39.6734 52.824 37.8814 51.704C36.0894 50.552 34.6654 48.936 33.6094 46.856C32.5854 44.744 32.0734 42.312 32.0734 39.56ZM52.1374 39.608C52.1374 37.56 51.5614 35.944 50.4094 34.76C49.2894 33.576 47.9134 32.984 46.2814 32.984C44.6494 32.984 43.2574 33.576 42.1054 34.76C40.9854 35.912 40.4254 37.512 40.4254 39.56C40.4254 41.608 40.9854 43.24 42.1054 44.456C43.2574 45.64 44.6494 46.232 46.2814 46.232C47.9134 46.232 49.2894 45.64 50.4094 44.456C51.5614 43.272 52.1374 41.656 52.1374 39.608ZM73.2915 23.432C71.8515 23.432 70.6675 23.016 69.7395 22.184C68.8435 21.32 68.3955 20.264 68.3955 19.016C68.3955 17.736 68.8435 16.68 69.7395 15.848C70.6675 14.984 71.8515 14.552 73.2915 14.552C74.6995 14.552 75.8515 14.984 76.7475 15.848C77.6755 16.68 78.1395 17.736 78.1395 19.016C78.1395 20.264 77.6755 21.32 76.7475 22.184C75.8515 23.016 74.6995 23.432 73.2915 23.432ZM77.3715 26.216V53H69.1635V26.216H77.3715ZM98.2478 45.32L104.056 26.216H112.792L103.288 53H93.1598L83.6558 26.216H92.4398L98.2478 45.32Z" fill="#FF67C2"/>
</svg>
