<svg width="50" height="50" viewBox="0 0 50 50" fill="none" xmlns="http://www.w3.org/2000/svg">
<path d="M25 4.16667C13.4937 4.16667 4.16666 13.4938 4.16666 25C4.16666 34.2573 10.2094 42.0948 18.5625 44.8083H31.4375C39.7906 42.0948 45.8333 34.2573 45.8333 25C45.8333 13.4938 36.5062 4.16667 25 4.16667Z" fill="url(#paint0_linear)"/>
<path opacity="0.05" d="M31.2604 43.7458L31.25 37.7063C31.25 36.7281 31.0208 35.7729 30.5812 34.9073C36.4573 33.7271 39.3167 30.2531 39.3167 24.3062C39.3167 21.9573 38.624 19.8833 37.2583 18.1396C37.3625 17.8094 37.4396 17.4677 37.4875 17.1177C37.6833 15.6917 37.4635 14.7594 37.2864 14.0094L37.2583 13.8885C37.0646 13.0594 36.8323 12.4677 36.8229 12.4427L36.7073 12.149L36.5917 11.8552L36.2771 11.8219L35.9614 11.7885C35.9614 11.7885 35.7542 11.7667 35.4396 11.7667C35.0031 11.7667 34.3562 11.8104 33.7448 12.0177L33.5406 12.0865C32.7698 12.3458 32.0417 12.5917 31.0229 13.2C30.725 13.3781 30.3989 13.5812 30.05 13.8083C28.4729 13.4177 26.776 13.2187 25 13.2187C23.2062 13.2187 21.4948 13.4187 19.9073 13.8135C19.5542 13.5844 19.226 13.3792 18.926 13.2C17.9073 12.5917 17.1792 12.3469 16.4083 12.0865L16.2042 12.0177C15.5948 11.8104 14.9469 11.7667 14.5104 11.7667C14.1958 11.7667 13.9885 11.7885 13.9885 11.7885L13.6739 11.8219L13.3614 11.8542L13.2448 12.1469L13.1271 12.4417C13.1167 12.4688 12.8844 13.0604 12.6906 13.8906L12.6625 14.0104C12.4854 14.7594 12.2656 15.6927 12.4614 17.1177C12.5114 17.4781 12.5917 17.8313 12.701 18.1708C11.3625 19.9062 10.6844 21.9687 10.6844 24.3062C10.6844 30.2385 13.5469 33.7104 19.4312 34.9C19.2292 35.3042 19.0719 35.7313 18.9604 36.175C18.7552 36.2448 18.5667 36.2917 18.4 36.3177C18.1521 36.3552 17.8927 36.374 17.6302 36.374C16.9156 36.374 16.3542 36.2344 16.1354 36.1042C15.8094 35.9104 15.2271 35.3469 14.6625 34.5229C14.1802 33.8198 13.4281 32.9 12.5875 32.5156C11.8604 32.1833 11.0906 31.9927 10.4739 31.9927C10.3302 31.9927 10.1979 32.0031 10.0823 32.0219C9.54374 32.1073 9.09374 32.4031 8.84895 32.8344C8.63749 33.2062 8.60416 33.6396 8.75728 34.0229C8.98541 34.5937 9.64374 35.049 10.1562 35.3302C10.4083 35.4688 10.9531 35.975 11.2708 36.4854C11.5094 36.8687 11.6198 37.1417 11.7729 37.5188C11.8635 37.7427 11.9635 37.9865 12.0989 38.2812C12.5885 39.3458 14.1167 40.2854 14.2896 40.3885C15.1292 40.8917 16.5406 41.0531 17.5781 41.1L17.7062 41.1031H17.7073C17.9573 41.1031 18.301 41.0792 18.7531 41.0292V43.751C18.7552 44.3021 18.1937 44.4271 17.451 44.4156L18.0208 44.6073C20.2031 45.3875 22.5469 45.8333 25 45.8333C27.4531 45.8333 29.7969 45.3875 31.9823 44.6083L32.7146 44.3354C31.9739 44.3104 31.2667 44.1896 31.2604 43.7458Z" fill="black"/>
<path opacity="0.07" d="M32.0635 44.5802C31.6406 44.6292 30.7292 44.4667 30.7292 43.7521V37.7063C30.7292 36.5667 30.3875 35.4656 29.7542 34.5271C35.9156 33.5302 38.7948 30.2635 38.7948 24.3062C38.7948 21.976 38.0802 19.9375 36.6708 18.2417C36.8135 17.8615 36.9135 17.4604 36.9708 17.0469C37.1531 15.7177 36.9542 14.874 36.7792 14.1292L36.751 14.0083C36.5656 13.2156 36.3469 12.6573 36.3375 12.6344L36.2219 12.3406L35.9062 12.3073C35.9062 12.3073 35.7208 12.2875 35.4385 12.2875C35.0417 12.2875 34.4552 12.326 33.9115 12.5115L33.7073 12.5802C32.9635 12.8312 32.2604 13.0677 31.2896 13.6469C30.9437 13.8531 30.5583 14.0958 30.1427 14.3698C28.5458 13.9521 26.8177 13.7396 25 13.7396C23.1646 13.7396 21.4219 13.9531 19.8135 14.375C19.3937 14.099 19.0062 13.8552 18.6583 13.6469C17.6875 13.0677 16.9844 12.8302 16.2406 12.5802L16.0365 12.5115C15.4937 12.3271 14.9062 12.2875 14.5094 12.2875C14.2271 12.2875 14.0417 12.3073 14.0417 12.3073L13.7271 12.3406L13.6094 12.6354C13.6 12.6583 13.3812 13.2167 13.1958 14.0094L13.1677 14.1302C12.9917 14.875 12.7927 15.7177 12.976 17.0469C13.0344 17.4708 13.1385 17.8812 13.2865 18.2698C11.9042 19.9573 11.2042 21.9854 11.2042 24.3062C11.2042 30.2469 14.0854 33.5125 20.2521 34.5208C19.8406 35.1354 19.5531 35.8281 19.4052 36.5667C19.0615 36.7021 18.75 36.7917 18.4771 36.8333C18.2031 36.875 17.9177 36.8958 17.6292 36.8958C16.9104 36.8958 16.2198 36.7615 15.8687 36.5531C15.4104 36.2812 14.7677 35.601 14.2312 34.8187C13.8667 34.2875 13.1406 33.3427 12.3687 32.9906C11.7073 32.6885 11.0167 32.5146 10.4719 32.5146C10.3573 32.5146 10.2531 32.5229 10.1615 32.5375C9.78021 32.5979 9.46562 32.8 9.29896 33.0938C9.16562 33.3271 9.14375 33.5969 9.2375 33.8313C9.42396 34.2979 10.1146 34.7167 10.4031 34.875C10.7521 35.0667 11.3604 35.65 11.7094 36.2125C11.9708 36.6333 12.0948 36.9385 12.2521 37.324C12.3406 37.5417 12.4375 37.7792 12.5687 38.0656C12.9135 38.8146 13.9781 39.599 14.5531 39.9438C15.3385 40.4146 16.7969 40.5458 17.5969 40.5813L17.7125 40.5833C18.024 40.5833 18.5458 40.5365 19.2698 40.4427V43.7521C19.2698 44.5635 18.2375 44.5958 17.9844 44.5958C17.9521 44.5958 18.5083 44.7875 18.5083 44.7875C20.5531 45.4583 22.7312 45.8333 25 45.8333C27.2687 45.8333 29.4469 45.4583 31.4906 44.7885C31.4906 44.7885 32.0958 44.576 32.0635 44.5802Z" fill="black"/>
<path d="M38.275 24.3062C38.275 21.9 37.4604 19.9042 36.0698 18.3396C36.2208 18.001 36.3781 17.5469 36.4563 16.976C36.6354 15.674 36.424 14.8927 36.2448 14.1281C36.0656 13.3635 35.8542 12.826 35.8542 12.826C35.8542 12.826 34.8938 12.7281 34.0802 13.0052C33.2667 13.2823 32.5667 13.4937 31.5573 14.0958C31.0854 14.3771 30.6104 14.6854 30.2344 14.9354C28.6271 14.4896 26.8594 14.2604 25 14.2604C23.124 14.2604 21.3406 14.4906 19.7219 14.9396C19.3448 14.6885 18.8667 14.3781 18.3917 14.0948C17.3823 13.4927 16.6823 13.2812 15.8688 13.0042C15.0552 12.7271 14.0948 12.825 14.0948 12.825C14.0948 12.825 13.8833 13.3625 13.7042 14.1271C13.525 14.8917 13.3135 15.6729 13.4927 16.975C13.5729 17.5604 13.7354 18.0229 13.8906 18.3635C12.526 19.9187 11.726 21.9021 11.726 24.3052C11.726 30.5375 15.0927 33.3823 21.2271 34.1333C20.5115 34.8896 20.0313 35.8583 19.8698 36.9365C19.4667 37.1135 19.0021 37.2802 18.5552 37.3469C17.4052 37.5208 16.1896 37.3469 15.6042 37C15.0188 36.6531 14.324 35.8719 13.8031 35.1115C13.3635 34.4698 12.7292 33.725 12.1542 33.4625C11.3948 33.1156 10.6563 32.9854 10.2448 33.05C9.8323 33.1156 9.63751 33.4188 9.72397 33.6365C9.81043 33.8531 10.2229 34.1792 10.6573 34.4177C11.0917 34.6562 11.7646 35.3073 12.1552 35.9365C12.5906 36.6385 12.676 37.0438 13.0448 37.8458C13.3042 38.4104 14.1917 39.1156 14.824 39.4948C15.3667 39.8208 16.451 40.0063 17.624 40.0594C18.0292 40.0781 18.9865 39.9594 19.7938 39.8448V43.751C19.7938 44.4167 19.1844 44.9229 18.5531 44.8063C20.5792 45.4875 22.7427 45.8333 25 45.8333C27.2563 45.8333 29.4198 45.4875 31.4479 44.8083C30.8177 44.924 30.2083 44.4177 30.2083 43.7521V37.7063C30.2083 36.3219 29.6594 35.0708 28.7781 34.1385C34.8677 33.4073 38.275 30.6302 38.275 24.3062ZM11.7073 34.0906C11.5469 34.0083 11.4604 33.8562 11.5146 33.749C11.5688 33.6417 11.7438 33.6219 11.9042 33.7042C12.0646 33.7865 12.151 33.9385 12.0969 34.0458C12.0427 34.1531 11.8677 34.1729 11.7073 34.0906ZM12.9698 34.8771C12.8854 34.9687 12.7042 34.9396 12.5646 34.8125C12.425 34.6854 12.3802 34.5073 12.4646 34.4156C12.549 34.324 12.7302 34.3531 12.8698 34.4802C13.0094 34.6073 13.0542 34.7854 12.9698 34.8771ZM13.7552 36.1792C13.649 36.2542 13.4688 36.1844 13.3531 36.0229C13.2375 35.8615 13.2302 35.6687 13.3365 35.5937C13.4427 35.5187 13.6229 35.5885 13.7385 35.75C13.8531 35.9115 13.8615 36.1042 13.7552 36.1792ZM14.8833 37.1594C14.8115 37.276 14.6073 37.2813 14.4281 37.1719C14.249 37.0625 14.1615 36.8792 14.2333 36.7625C14.3052 36.6458 14.5094 36.6406 14.6885 36.75C14.8677 36.8594 14.9552 37.0427 14.8833 37.1594ZM15.95 38.1188C15.7281 38.0917 15.5635 37.9531 15.5823 37.8094C15.6 37.6656 15.7948 37.5719 16.0156 37.599C16.2375 37.626 16.4021 37.7646 16.3833 37.9083C16.3656 38.051 16.1719 38.1458 15.95 38.1188ZM17.6698 38.3677C17.4333 38.3542 17.249 38.2188 17.2583 38.0667C17.2677 37.9146 17.4667 37.801 17.7031 37.8146C17.9396 37.8281 18.124 37.9635 18.1146 38.1156C18.1052 38.2688 17.9063 38.3813 17.6698 38.3677ZM19.2927 38.2052C19.0406 38.2052 18.8365 38.074 18.8365 37.9125C18.8365 37.751 19.0406 37.6198 19.2927 37.6198C19.5448 37.6198 19.749 37.751 19.749 37.9125C19.749 38.074 19.5438 38.2052 19.2927 38.2052Z" fill="white"/>
<defs>
<linearGradient id="paint0_linear" x1="4.16666" y1="24.4875" x2="45.8333" y2="24.4875" gradientUnits="userSpaceOnUse">
<stop/>
<stop offset="1" stop-color="#343434"/>
</linearGradient>
</defs>
</svg>
