<svg width="106" height="110" viewBox="0 0 106 110" fill="none" xmlns="http://www.w3.org/2000/svg">
<path d="M94.1634 43.7753L85.8159 40.8878L89.7467 32.7295C90.1452 31.8756 90.2785 30.9143 90.1282 29.9784C89.9779 29.0426 89.5514 28.1782 88.9076 27.5045L79.5001 17.742C78.8474 17.0641 78.0064 16.6154 77.0954 16.4592C76.1843 16.303 75.249 16.4471 74.4209 16.8712L66.5592 20.9503L63.7767 12.2878C63.4828 11.3849 62.925 10.5994 62.1809 10.0408C61.4368 9.48223 60.5434 9.17824 59.625 9.17116H46.375C45.4491 9.16868 44.5458 9.46824 43.7929 10.0275C43.04 10.5868 42.4755 11.3775 42.1792 12.2878L39.3967 20.9503L31.535 16.8712C30.7121 16.4576 29.7859 16.3193 28.884 16.4753C27.9822 16.6313 27.1492 17.0739 26.5 17.742L17.0925 27.5045C16.4392 28.1817 16.0069 29.0545 15.8564 29.9999C15.7059 30.9454 15.8447 31.916 16.2534 32.7753L20.1842 40.9337L11.8367 43.8212C10.9666 44.1261 10.2097 44.705 9.67141 45.4771C9.13312 46.2493 8.84018 47.1765 8.83336 48.1295V61.8795C8.83097 62.8404 9.11964 63.7777 9.65858 64.559C10.1975 65.3404 10.9594 65.9262 11.8367 66.2337L20.1842 69.1212L16.2534 77.2795C15.8549 78.1334 15.7216 79.0947 15.8719 80.0305C16.0222 80.9664 16.4487 81.8308 17.0925 82.5045L26.5 92.267C27.1527 92.9449 27.9936 93.3935 28.9047 93.5498C29.8158 93.706 30.7511 93.5619 31.5792 93.1378L39.4409 89.0587L42.2234 97.7212C42.5197 98.6315 43.0842 99.4222 43.8371 99.9815C44.59 100.541 45.4933 100.84 46.4192 100.838H59.6692C60.5951 100.84 61.4984 100.541 62.2513 99.9815C63.0042 99.4222 63.5687 98.6315 63.865 97.7212L66.6475 89.0587L74.5092 93.1378C75.3268 93.5409 76.2441 93.6735 77.1367 93.5178C78.0294 93.362 78.8544 92.9254 79.5001 92.267L88.9076 82.5045C89.5608 81.8272 89.9931 80.9545 90.1437 80.0091C90.2942 79.0636 90.1554 78.093 89.7467 77.2337L85.8159 69.0753L94.1634 66.1878C95.0335 65.8829 95.7904 65.304 96.3287 64.5318C96.867 63.7596 97.1599 62.8325 97.1667 61.8795V48.1295C97.1691 47.1686 96.8804 46.2313 96.3415 45.4499C95.8026 44.6686 95.0406 44.0828 94.1634 43.7753ZM88.3334 58.5795L83.0334 60.4128C81.8146 60.8231 80.6965 61.5035 79.7565 62.407C78.8165 63.3105 78.0771 64.4154 77.5897 65.6451C77.1022 66.8747 76.8784 68.1997 76.9338 69.528C76.9891 70.8564 77.3222 72.1564 77.91 73.3378L80.4275 78.5628L75.5692 83.6045L70.6667 80.8545C69.5341 80.2689 68.2934 79.9427 67.0288 79.8979C65.7641 79.8532 64.5049 80.0909 63.3364 80.595C62.168 81.0992 61.1176 81.858 60.2563 82.82C59.395 83.782 58.7429 84.9249 58.3442 86.1712L56.5775 91.6712H49.555L47.7884 86.1712C47.393 84.9064 46.7373 83.7461 45.8667 82.7706C44.996 81.7951 43.9313 81.0278 42.7464 80.522C41.5615 80.0162 40.2847 79.784 39.0046 79.8414C37.7245 79.8988 36.4718 80.2445 35.3334 80.8545L30.2984 83.467L25.44 78.4253L28.09 73.3378C28.6779 72.1564 29.011 70.8564 29.0663 69.528C29.1216 68.1997 28.8978 66.8747 28.4104 65.6451C27.923 64.4154 27.1836 63.3105 26.2436 62.407C25.3036 61.5035 24.1854 60.8231 22.9667 60.4128L17.6667 58.5795V51.4295L22.9667 49.5962C24.1854 49.1859 25.3036 48.5054 26.2436 47.6019C27.1836 46.6984 27.923 45.5936 28.4104 44.3639C28.8978 43.1343 29.1216 41.8093 29.0663 40.4809C29.011 39.1526 28.6779 37.8526 28.09 36.6712L25.5725 31.5837L30.4309 26.542L35.3334 29.1545C36.4718 29.7645 37.7245 30.1102 39.0046 30.1676C40.2847 30.225 41.5615 29.9928 42.7464 29.487C43.9313 28.9811 44.996 28.2139 45.8667 27.2384C46.7373 26.2629 47.393 25.1026 47.7884 23.8378L49.555 18.3378H56.445L58.2117 23.8378C58.607 25.1026 59.2628 26.2629 60.1334 27.2384C61.004 28.2139 62.0688 28.9811 63.2537 29.487C64.4386 29.9928 65.7154 30.225 66.9955 30.1676C68.2755 30.1102 69.5283 29.7645 70.6667 29.1545L75.7017 26.542L80.5601 31.5837L77.91 36.6712C77.3458 37.8465 77.0314 39.134 76.9883 40.4464C76.9451 41.7588 77.1742 43.0655 77.66 44.278C78.1458 45.4906 78.877 46.5806 79.8041 47.4744C80.7311 48.3682 81.8324 49.0449 83.0334 49.4587L88.3334 51.292V58.5795ZM53 36.6712C49.5059 36.6712 46.0902 37.7464 43.185 39.7609C40.2797 41.7754 38.0153 44.6386 36.6782 47.9886C35.341 51.3386 34.9912 55.0248 35.6728 58.5811C36.3545 62.1375 38.0371 65.4042 40.5078 67.9681C42.9785 70.5321 46.1264 72.2782 49.5534 72.9856C52.9804 73.693 56.5326 73.3299 59.7608 71.9423C62.9889 70.5547 65.7481 68.2048 67.6893 65.1899C69.6306 62.175 70.6667 58.6305 70.6667 55.0045C70.6667 50.1422 68.8054 45.479 65.4923 42.0409C62.1791 38.6027 57.6855 36.6712 53 36.6712ZM53 64.1712C51.253 64.1712 49.5451 63.6335 48.0925 62.6263C46.6399 61.6191 45.5077 60.1874 44.8391 58.5124C44.1705 56.8374 43.9956 54.9943 44.3364 53.2162C44.6773 51.438 45.5186 49.8047 46.7539 48.5227C47.9893 47.2407 49.5632 46.3677 51.2767 46.014C52.9902 45.6603 54.7663 45.8418 56.3804 46.5356C57.9945 47.2294 59.3741 48.4043 60.3447 49.9118C61.3153 51.4192 61.8334 53.1915 61.8334 55.0045C61.8334 57.4356 60.9027 59.7672 59.2462 61.4863C57.5896 63.2054 55.3428 64.1712 53 64.1712Z" fill="#8124FD"/>
</svg>
