<svg width="144" height="40" viewBox="0 0 144 40" fill="none" xmlns="http://www.w3.org/2000/svg">
<path d="M104 20C104 8.95433 112.954 0 124 0C135.046 0 144 8.95433 144 20C144 31.0457 135.046 40 124 40C112.954 40 104 31.0457 104 20Z" fill="#333333"/>
<path d="M120 32C122.209 32 124 30.2092 124 28V24H120C117.791 24 116 25.7909 116 28C116 30.2092 117.791 32 120 32Z" fill="#0ACF83"/>
<path d="M116 20C116 17.7908 117.791 16 120 16H124V24H120C117.791 24 116 22.2091 116 20Z" fill="#A259FF"/>
<path d="M116 12C116 9.79085 117.791 8 120 8H124V16H120C117.791 16 116 14.2091 116 12Z" fill="#F24E1E"/>
<path d="M124 8H128C130.209 8 132 9.79085 132 12C132 14.2091 130.209 16 128 16H124V8Z" fill="#FF7262"/>
<path d="M132 20C132 22.2091 130.209 24 128 24C125.791 24 124 22.2091 124 20C124 17.7908 125.791 16 128 16C130.209 16 132 17.7908 132 20Z" fill="#1ABCFE"/>
<path d="M32.9168 40H7.0832C3.1664 40 0 36.7524 0 32.7352V7.26482C0 3.24759 3.1664 0 7.0832 0H32.9168C36.8336 0 40 3.24759 40 7.26482V32.7352C40 36.7524 36.8336 40 32.9168 40Z" fill="#FF26BE"/>
<path d="M32.2832 38.2901H7.71684C4.38404 38.2901 1.66724 35.5036 1.66724 32.0854V7.91468C1.66724 4.49642 4.38404 1.70996 7.71684 1.70996H32.2672C35.6176 1.70996 38.3168 4.49642 38.3168 7.91468V32.0689C38.3328 35.5036 35.616 38.2901 32.2832 38.2901Z" fill="#2E001F"/>
<path d="M15.816 18.7176L20.4832 27.9139C20.5664 28.0501 20.5168 28.1879 20.3824 28.1879H17.4816C17.2976 28.1879 17.2144 28.1371 17.1312 27.9664C16.064 25.71 14.9808 23.4536 13.864 21.0265H13.8304C12.8304 23.3174 11.7296 25.728 10.664 27.9844C10.5808 28.1206 10.4976 28.1732 10.3632 28.1732H7.61601C7.44961 28.1732 7.43201 28.037 7.51681 27.9336L12.0832 19.0097L7.66721 9.98403C7.56641 9.84782 7.66721 9.74444 7.76641 9.74444H10.6336C10.8 9.74444 10.8672 9.7789 10.9328 9.93316C11.9824 12.1896 13.0496 14.5149 14.0496 16.7877H14.0832C15.0496 14.5313 16.1168 12.1896 17.1504 9.94957C17.2336 9.81336 17.2832 9.72803 17.4512 9.72803H20.1344C20.2672 9.72803 20.3184 9.83141 20.2352 9.96762L15.816 18.7176ZM21.3008 21.504C21.3008 17.5213 23.8848 14.4099 27.984 14.4099C28.3344 14.4099 28.5168 14.4099 28.8512 14.4443V9.9151C28.8512 9.81172 28.9344 9.74444 29.0176 9.74444H31.6512C31.784 9.74444 31.8176 9.79531 31.8176 9.88064V25.5738C31.8176 26.0349 31.8176 26.6158 31.9008 27.2493C31.9008 27.3526 31.8672 27.3855 31.768 27.438C30.368 28.1223 28.9008 28.4292 27.5008 28.4292C23.8832 28.4439 21.2992 26.1547 21.3008 21.504ZM28.8496 17.1291C28.616 17.0257 28.2832 16.9584 27.8832 16.9584C25.7824 16.9584 24.3168 18.6158 24.3168 21.3695C24.3168 24.5153 25.8176 25.7805 27.7008 25.7805C28.1008 25.7805 28.5344 25.7297 28.8512 25.5918V17.1291H28.8496Z" fill="#FFD9F2"/>
</svg>
